<?xml version="1.0" standalone="no"?>
<!DOCTYPE svg PUBLIC "-//W3C//DTD SVG 20010904//EN"
 "http://www.w3.org/TR/2001/REC-SVG-20010904/DTD/svg10.dtd">
<svg version="1.0" xmlns="http://www.w3.org/2000/svg"
 width="700.000000pt" height="700.000000pt" viewBox="0 0 700.000000 700.000000"
 preserveAspectRatio="xMidYMid meet">
<metadata>
Created by potrace 1.14, written by Peter Selinger 2001-2017
</metadata>
<g transform="translate(0.000000,700.000000) scale(0.100000,-0.100000)"
fill="#000000" stroke="none">
<path d="M1719 4810 c-165 -19 -307 -75 -396 -154 -81 -73 -156 -213 -206
-386 -21 -73 -21 -93 -25 -723 -2 -548 -1 -661 12 -737 39 -221 152 -424 285
-509 224 -144 679 -158 933 -30 34 17 84 54 113 82 94 95 181 315 185 467 1
30 1 119 1 198 l-1 142 -264 0 -264 0 -5 -197 c-7 -272 -26 -333 -118 -381
-84 -44 -223 -12 -269 63 -50 83 -51 88 -51 855 0 634 2 721 17 770 25 83 40
107 87 135 85 49 236 27 284 -41 38 -55 47 -103 52 -309 l6 -200 265 0 265 0
3 155 c5 251 -27 391 -123 546 -82 131 -187 199 -358 235 -108 22 -320 31
-428 19z"/>
<path d="M3320 4811 c0 -6 -108 -596 -240 -1312 -132 -716 -240 -1303 -240
-1305 0 -2 110 -4 244 -4 l244 0 10 58 c5 31 27 159 48 285 l37 227 196 -2
195 -3 38 -255 c20 -140 40 -270 43 -287 l6 -33 240 0 241 0 -6 27 c-3 16 -71
388 -151 828 -81 440 -186 1020 -236 1289 -49 269 -89 491 -89 493 0 1 -130 3
-290 3 -176 0 -290 -4 -290 -9z m434 -1673 l6 -38 -145 0 c-80 0 -145 1 -145
3 0 2 31 225 70 497 38 272 70 500 71 505 1 6 32 -201 69 -460 38 -258 71
-487 74 -507z"/>
<path d="M4370 4615 l0 -205 200 0 200 0 0 -1115 0 -1115 265 0 265 0 0 1115
0 1115 195 0 195 0 0 205 0 205 -660 0 -660 0 0 -205z"/>
</g>
</svg>
